<svg width="1em" height="1em"
    xmlns="http://www.w3.org/2000/svg" viewBox="0 0 24 24" class="SvgIconstyled__SvgIconStyled-sc-1i6f60b-0 fTCyNE">
    <path d="M12 10.5c.54 0 1.013.352 1.173.86l.031.119L15.187 21H16a1 1 0 0 1 1 1v1H7v-1a1 1 0 0 1 1-1h.812l1.984-9.521A1.23 1.23 0 0 1 12 10.5zM13.5 1a.5.5 0 0 1 .5.5v.723A8.993 8.993 0 0 1 18.71 5H21.5a.5.5 0 0 1 .5.5v3a.5.5 0 0 1-.5.5h-.723A9.03 9.03 0 0 1 21 11c0 1.052-.18 2.062-.512 3H21.5a.5.5 0 0 1 .5.5v3a.5.5 0 0 1-.5.5h-3a.5.5 0 0 1-.467-.321 9.008 9.008 0 0 1-2.21 1.471l-.21-1.01A8.03 8.03 0 0 0 18 16.29L18 15.28l-3.423-2.106-.28-1.348 3.82 2.353A.499.499 0 0 1 18.5 14l.918.001c.375-.927.582-1.94.582-3.001 0-.69-.087-1.36-.252-2H18.5a.5.5 0 0 1-.5-.5v-.606l-4.168 2.565a2.236 2.236 0 0 0-.779-.695L18 6.72l.001-1.01a7.999 7.999 0 0 0-4-2.458L14 4.5a.5.5 0 0 1-.5.5h-1v4.557a2.231 2.231 0 0 0-1 0V5h-1a.5.5 0 0 1-.5-.5V3.252a7.999 7.999 0 0 0-4 2.457V6.72l4.947 3.044c-.31.167-.578.405-.78.696L6 7.895V8.5a.5.5 0 0 1-.5.5H4.252A8.015 8.015 0 0 0 4 11c0 1.061.207 2.074.582 3.001L5.5 14c.153 0 .29.07.382.178l3.82-2.351-.281 1.347L6 15.279v1.012a8.03 8.03 0 0 0 2.387 1.849l-.21 1.01a9.014 9.014 0 0 1-2.21-1.472A.498.498 0 0 1 5.5 18h-3a.5.5 0 0 1-.5-.5v-3a.5.5 0 0 1 .5-.5h1.012A8.985 8.985 0 0 1 3 11c0-.687.077-1.357.223-2H2.5a.5.5 0 0 1-.5-.5v-3a.5.5 0 0 1 .5-.5h2.791a8.993 8.993 0 0 1 4.71-2.777L10 1.5a.5.5 0 0 1 .5-.5h3z"></path>
</svg>