<svg width="1em" height="1em" viewBox="0 0 24 24" fill="none"
    xmlns="http://www.w3.org/2000/svg" class="SvgIconstyled__SvgIconStyled-sc-1i6f60b-0 fTCyNE">
    <path fill-rule="evenodd" clip-rule="evenodd" d="M9 1.5a.5.5 0 0 0-.5-.5h-1a.5.5 0 0 0-.5.5V3H4a2 2 0 0 0-2 2v15a2 2 0 0 0 2 2h16a2 2 0 0 0 2-2v-3h-2v2l-.007.117A1 1 0 0 1 19 20H5l-.117-.007A1 1 0 0 1 4 19V7h16v3h2V5a2 2 0 0 0-2-2h-3V1.5a.5.5 0 0 0-.5-.5h-1a.5.5 0 0 0-.5.5V3H9V1.5zm10 10a.5.5 0 0 0-1 0V13h-1.5a.5.5 0 0 0 0 1H18v1.5a.5.5 0 0 0 .5.5l.09-.008A.5.5 0 0 0 19 15.5V14h1.5l.09-.008A.5.5 0 0 0 20.5 13H19v-1.5zM9.5 9.125a.875.875 0 1 0 0 1.75h3.173l-2.477 5.78a.875.875 0 0 0 1.608.69l3-7A.875.875 0 0 0 14 9.125H9.5z" fill="#2A2A2E"></path>
</svg>